<svg height="512pt" viewBox="0 0 512 512" width="512pt" xmlns="http://www.w3.org/2000/svg"><path d="m338.007812 255.238281h-101.910156c-8.285156 0-15-6.714843-15-15 0-8.285156 6.714844-15 15-15h93.714844l50.925781-79.347656c4.476563-6.972656 13.753907-8.996094 20.726563-4.519531 6.972656 4.472656 8.996094 13.753906 4.523437 20.726562l-55.359375 86.246094c-2.757812 4.296875-7.511718 6.894531-12.621094 6.894531zm0 0" fill="#7e9bcc"/><path d="m173.992188 255.238281h101.910156c8.285156 0 15-6.714843 15-15 0-8.285156-6.714844-15-15-15h-93.714844l-50.925781-79.347656c-4.476563-6.972656-13.753907-8.996094-20.726563-4.519531-6.972656 4.472656-8.996094 13.753906-4.523437 20.726562l55.355469 86.246094c2.761718 4.296875 7.515624 6.894531 12.625 6.894531zm0 0" fill="#7e9bcc"/><path d="m322.230469 255.238281h-132.460938c-8.285156 0-15-6.714843-15-15v-116.246093c0-8.28125 6.714844-15 15-15h132.460938c8.285156 0 15 6.71875 15 15v116.246093c0 8.285157-6.714844 15-15 15zm0 0" fill="#db703d"/><path d="m509.3125 145.425781-21.695312-31.171875c-9.882813-14.195312-26.105469-22.671875-43.402344-22.671875-18.234375 0-34.941406 9.199219-44.6875 24.609375l-18.839844 29.78125c-1.519531 2.402344-2.324219 5.179688-2.324219 8.019532v158.007812h133.636719v-158.007812c0-3.0625-.9375-6.050782-2.6875-8.566407zm0 0" fill="#c9dff7"/><path d="m487.617188 114.253906c-9.3125-13.382812-24.265626-21.675781-40.433594-22.582031v220.332031h64.816406v-158.011718c0-3.0625-.9375-6.054688-2.6875-8.566407zm0 0" fill="#aecef2"/><path d="m447.183594 121.582031h-4c-23.710938 0-43-19.292969-43-43v-35.582031c0-23.710938 19.289062-43 43-43h4c23.707031 0 43 19.289062 43 43v35.578125c0 23.710937-19.289063 43.003906-43 43.003906zm0 0" fill="#ffd2b4"/><path d="m490.183594 78.582031v-35.582031c0-23.710938-19.292969-43-43-43v121.582031c23.710937 0 43-19.292969 43-43zm0 0" fill="#ffbea0"/><path d="m490.160156 42.207031c-.425781-23.34375-19.53125-42.207031-42.976562-42.207031h-4c-16.691406 0-31.183594 9.566406-38.304688 23.496094h-27.871094c-8.285156 0-15 6.71875-15 15 0 8.285156 6.714844 15 15 15h113.175782s-.007813-11.023438-.023438-11.289063zm0 0" fill="#ff5c42"/><path d="m489.945312 53.496094h.238282s-.007813-11.019532-.023438-11.289063c-.425781-23.34375-19.53125-42.207031-42.976562-42.207031v53.496094zm0 0" fill="#d9311c"/><path d="m439.917969 255.238281h-101.910157c-8.285156 0-15-6.714843-15-15 0-8.285156 6.714844-15 15-15h93.714844l50.929688-79.347656c4.476562-6.972656 13.753906-8.996094 20.726562-4.519531 6.972656 4.472656 8.996094 13.753906 4.519532 20.726562l-55.355469 86.246094c-2.761719 4.296875-7.515625 6.894531-12.625 6.894531zm0 0" fill="#7e9bcc"/><path d="m503.378906 141.371094c-6.972656-4.480469-16.25-2.453125-20.726562 4.519531l-35.46875 55.261719v52.207031c2.140625-1.183594 3.996094-2.890625 5.359375-5.015625l55.355469-86.246094c4.472656-6.972656 2.453124-16.253906-4.519532-20.726562zm0 0" fill="#5877a6"/><path d="m367 225.238281h-28.992188c-8.285156 0-15 6.714844-15 15 0 8.285157 6.714844 15 15 15h28.992188zm0 0" fill="#ffd2b4"/><path d="m378.363281 282.855469v214.144531c0 8.285156 6.714844 15 15 15 8.285157 0 15-6.714844 15-15v-155.515625h73.636719v155.515625c0 8.285156 6.714844 15 15 15s15-6.714844 15-15v-214.144531zm0 0" fill="#ff5c42"/><path d="m447.183594 341.484375h34.816406v155.515625c0 8.285156 6.714844 15 15 15s15-6.714844 15-15v-214.144531h-64.816406zm0 0" fill="#d9311c"/><path d="m2.6875 145.425781 21.695312-31.171875c9.882813-14.195312 26.105469-22.671875 43.402344-22.671875 18.234375 0 34.941406 9.199219 44.6875 24.609375l18.839844 29.78125c1.519531 2.402344 2.324219 5.179688 2.324219 8.019532v158.007812h-133.636719v-158.007812c0-3.0625.9375-6.050782 2.6875-8.566407zm0 0" fill="#c9dff7"/><path d="m112.472656 116.191406c-9.5625-15.117187-25.824218-24.238281-43.65625-24.578125v220.386719h64.820313v-158.007812c0-2.839844-.808594-5.617188-2.324219-8.019532zm0 0" fill="#aecef2"/><path d="m21.816406 78.582031v-35.582031c0-23.710938 19.289063-43 43-43h4c23.710938 0 43 19.289062 43 43v35.578125c0 23.710937-19.289062 43-43 43h-4c-23.710937.003906-43-19.289063-43-42.996094zm0 0" fill="#ffd2b4"/><path d="m111.816406 78.582031v-35.582031c0-23.710938-19.289062-43-43-43v121.582031c23.710938 0 43-19.292969 43-43zm0 0" fill="#ffbea0"/><path d="m72.082031 255.238281h101.910157c8.285156 0 15-6.714843 15-15 0-8.285156-6.714844-15-15-15h-93.714844l-50.929688-79.347656c-4.476562-6.972656-13.753906-8.996094-20.726562-4.519531-6.972656 4.472656-8.996094 13.753906-4.519532 20.726562l55.355469 86.246094c2.761719 4.296875 7.515625 6.894531 12.625 6.894531zm0 0" fill="#7e9bcc"/><path d="m145 225.238281h28.992188c8.285156 0 15 6.714844 15 15 0 8.285157-6.714844 15-15 15h-28.992188zm0 0" fill="#ffd2b4"/><path d="m133.636719 282.855469v214.144531c0 8.285156-6.714844 15-15 15-8.285157 0-15-6.714844-15-15v-155.515625h-73.636719v155.515625c0 8.285156-6.714844 15-15 15s-15-6.714844-15-15v-214.144531zm0 0" fill="#7e9bcc"/><path d="m68.816406 341.484375h34.820313v155.515625c0 8.285156 6.714843 15 15 15 8.285156 0 15-6.714844 15-15v-214.144531h-64.820313zm0 0" fill="#5877a6"/><path d="m173.992188 225.238281h-93.714844l-11.460938-17.851562v47.484375c1.0625.238281 2.152344.367187 3.261719.367187h101.914063c8.28125 0 15-6.714843 15-15 0-8.285156-6.714844-15-15-15zm0 0" fill="#5877a6"/><path d="m145 225.238281h28.992188c8.285156 0 15 6.714844 15 15 0 8.285157-6.714844 15-15 15h-28.992188zm0 0" fill="#ffd2b4"/></svg>