<svg id="Capa_1" enable-background="new 0 0 512.044 512.044" height="512" viewBox="0 0 512.044 512.044" width="512" xmlns="http://www.w3.org/2000/svg"><g><path d="m506.001 415.112-210.765-363.429c-8.057-13.975-23.086-22.661-39.214-22.661s-31.157 8.672-39.214 22.646l-210.766 363.444c-8.057 13.96-8.057 31.304 0 45.278 8.071 13.96 23.086 22.632 39.214 22.632h210.766 210.766c16.128 0 31.143-8.672 39.214-22.646 8.056-13.96 8.056-31.304-.001-45.264z" fill="#ff6b6b"/><path d="m506.001 460.375c8.057-13.96 8.057-31.304 0-45.264l-210.765-363.428c-8.057-13.975-23.086-22.661-39.214-22.661v454h210.766c16.128 0 31.142-8.672 39.213-22.647z" fill="#e62e77"/><path d="m480.015 430.112-210.765-363.444c-2.725-4.717-7.793-7.646-13.228-7.646s-10.503 2.93-13.228 7.632v.015l-210.765 363.443c-2.725 4.702-2.725 10.562 0 15.293 2.71 4.688 7.778 7.617 13.228 7.617h210.766 210.766c5.449 0 10.518-2.93 13.228-7.632 2.723-4.717 2.723-10.576-.002-15.278z" fill="#f3f5f9"/><path d="m480.015 445.39c2.725-4.717 2.725-10.576 0-15.278l-210.765-363.444c-2.725-4.717-7.793-7.646-13.228-7.646v394h210.766c5.449 0 10.517-2.93 13.227-7.632z" fill="#e2dff4"/><g fill="#ff6b6b"><path d="m256.022 243.022c-8.291 0-15 6.709-15 15v60c0 8.291 6.709 15 15 15s15-6.709 15-15v-60c0-8.291-6.709-15-15-15z"/><circle cx="256.022" cy="378.022" r="15"/></g><g fill="#e62e77"><path d="m271.022 318.022v-60c0-8.291-6.709-15-15-15v90c8.291 0 15-6.709 15-15z"/><path d="m271.022 378.022c0-8.286-6.716-15-15-15v30c8.284 0 15-6.716 15-15z"/></g></g></svg>