<svg id="Capa_1" enable-background="new 0 0 512 512" height="512" viewBox="0 0 512 512" width="512" xmlns="http://www.w3.org/2000/svg"><g><path d="m482 121h-452l-30 30v315c0 8.401 6.599 15 15 15h482c8.401 0 15-6.599 15-15v-315z" fill="#f0f7ff"/><path d="m512 466v-315l-30-30h-226v360h241c8.401 0 15-6.599 15-15z" fill="#dfe7f4"/><path d="m497 61h-482c-8.401 0-15 6.599-15 15v75h512v-75c0-8.401-6.599-15-15-15z" fill="#f9b"/><path d="m512 76c0-8.401-6.599-15-15-15h-241v90h256z" fill="#f69"/><path d="m106 301c-3.838 0-7.676-1.465-10.605-4.395l-30-30c-5.859-5.859-5.859-15.352 0-21.211s15.352-5.859 21.211 0l19.394 19.395 49.395-49.395c5.859-5.859 15.352-5.859 21.211 0s5.859 15.352 0 21.211l-60 60c-2.93 2.93-6.768 4.395-10.606 4.395z" fill="#80aaff"/><path d="m106 421c-3.838 0-7.676-1.465-10.605-4.395l-30-30c-5.859-5.859-5.859-15.352 0-21.211s15.352-5.859 21.211 0l19.394 19.395 49.395-49.395c5.859-5.859 15.352-5.859 21.211 0s5.859 15.352 0 21.211l-60 60c-2.93 2.93-6.768 4.395-10.606 4.395z" fill="#80aaff"/><path d="m376 301c-3.838 0-7.676-1.465-10.605-4.395l-30-30c-5.859-5.859-5.859-15.352 0-21.211s15.352-5.859 21.211 0l19.394 19.395 49.395-49.395c5.859-5.859 15.352-5.859 21.211 0s5.859 15.352 0 21.211l-60 60c-2.93 2.93-6.768 4.395-10.606 4.395z" fill="#69f"/><path d="m421 391h-60c-8.291 0-15-6.709-15-15s6.709-15 15-15h60c8.291 0 15 6.709 15 15s-6.709 15-15 15z" fill="#333e73"/><path d="m76 121c-8.291 0-15-6.709-15-15v-60c0-8.291 6.709-15 15-15s15 6.709 15 15v60c0 8.291-6.709 15-15 15z" fill="#4d578c"/><path d="m196 121c-8.291 0-15-6.709-15-15v-60c0-8.291 6.709-15 15-15s15 6.709 15 15v60c0 8.291-6.709 15-15 15z" fill="#4d578c"/><path d="m311.605 215.395c-5.859-5.859-15.352-5.859-21.211 0l-49.394 49.394-19.395-19.395c-5.859-5.859-15.352-5.859-21.211 0s-5.859 15.352 0 21.211l30 30c2.93 2.93 6.768 4.395 10.605 4.395s7.676-1.465 10.605-4.395l60-60c5.861-5.859 5.861-15.351.001-21.21z" fill="#80aaff"/><path d="m311.605 215.395c-5.859-5.859-15.352-5.859-21.211 0l-34.394 34.394v42.422l55.605-55.605c5.86-5.86 5.86-15.352 0-21.211z" fill="#69f"/><path d="m286 361h-60c-8.291 0-15 6.709-15 15s6.709 15 15 15h60c8.291 0 15-6.709 15-15s-6.709-15-15-15z" fill="#4d578c"/><g fill="#333e73"><path d="m301 376c0-8.291-6.709-15-15-15h-30v30h30c8.291 0 15-6.709 15-15z"/><path d="m316 121c-8.291 0-15-6.709-15-15v-60c0-8.291 6.709-15 15-15s15 6.709 15 15v60c0 8.291-6.709 15-15 15z"/><path d="m436 121c-8.291 0-15-6.709-15-15v-60c0-8.291 6.709-15 15-15s15 6.709 15 15v60c0 8.291-6.709 15-15 15z"/></g></g></svg>