<svg xmlns="http://www.w3.org/2000/svg" width="67.469" height="72.306" viewBox="0 0 67.469 72.306"><defs><style>.a{fill:#bbb;}</style></defs><g transform="translate(0)"><path class="a" d="M79.662,44.389V18.052L48.394,0,17.126,18.052v36.1L48.394,72.21l8.318-4.8a16.254,16.254,0,1,0,22.95-23.018ZM48.394,4.9,73.3,19.277,62.967,25.242l-24.9-14.379ZM46.273,66.087l-24.9-14.379V22.951l24.9,14.379ZM23.489,19.277,33.82,13.312l24.9,14.379L48.394,33.656Zm27.025,46.81V37.33l24.9-14.379V41.409a16.257,16.257,0,0,0-21.271,22.58Zm17.818,1.977a12.02,12.02,0,1,1,12.02-12.02A12.034,12.034,0,0,1,68.333,68.064Z" transform="translate(-17.126)"/></g><g transform="translate(43.188 49.882)"><path class="a" d="M335.982,353.212l-6.946,6.984-3.111-3.08-2.984,3.015,6.119,6.057,9.93-9.985Z" transform="translate(-322.94 -353.212)"/></g></svg>