<svg xmlns="http://www.w3.org/2000/svg" width="81.116" height="72.306" viewBox="0 0 81.116 72.306"><defs><style>.a{fill:#bbb;}</style></defs><g transform="translate(0 0)"><path class="a" d="M227.013,43.832,177.334,33.318a3.917,3.917,0,0,0-4.63,3.013L171.76,42.4l57.322,12.13.944-6.065A3.917,3.917,0,0,0,227.013,43.832Z" transform="translate(-148.994 -33.234)"/><path class="a" d="M57.127,171.963a3.955,3.955,0,0,0-4.853-2.745l-9.431,2.618L20.61,167.13l-2.445,11.553-15.277,4.24a3.954,3.954,0,0,0-2.745,4.852L8.752,218.8a3.955,3.955,0,0,0,4.853,2.745L62.992,207.84a3.955,3.955,0,0,0,2.745-4.853l-1.478-5.326,5.539,1.171a3.916,3.916,0,0,0,4.63-3.012l3.5-16.559-19.951-4.222Zm5.7,15.768,1.221-5.773a1.612,1.612,0,0,1,1.9-1.239l5.772,1.222a1.612,1.612,0,0,1,1.24,1.9l-1.221,5.773a1.612,1.612,0,0,1-1.9,1.239l-5.772-1.221A1.612,1.612,0,0,1,62.83,187.731ZM3.747,186.019l13.667-3.792,32.248-8.949,3.47-.964a.722.722,0,0,1,.188-.025.745.745,0,0,1,.708.532l.407,1.467,1.277,4.6L4.923,192.983,3.24,186.917A.739.739,0,0,1,3.747,186.019ZM62.64,203.846a.741.741,0,0,1-.507.9L12.747,218.449a.717.717,0,0,1-.188.026.746.746,0,0,1-.708-.533l-5.022-18.1L57.617,185.75l3.1,11.161Z" transform="translate(0 -149.383)"/><path class="a" d="M97.98,445.779A1.612,1.612,0,0,0,96,444.66l-5.768,1.6a1.611,1.611,0,0,0-1.118,1.979l1.6,5.767a1.611,1.611,0,0,0,1.979,1.118l5.768-1.6a1.612,1.612,0,0,0,1.119-1.979Z" transform="translate(-77.253 -390.077)"/></g></svg>