<svg xmlns="http://www.w3.org/2000/svg" width="95.65" height="72.306" viewBox="0 0 95.65 72.306"><defs><style>.a{fill:#bbb;}</style></defs><g transform="translate(7.644 48.342)"><path class="a" d="M52.9,321.244A11.982,11.982,0,1,0,64.88,333.226,12,12,0,0,0,52.9,321.244Zm0,17.768a5.785,5.785,0,1,1,5.784-5.784A5.791,5.791,0,0,1,52.9,339.012Z" transform="translate(-40.916 -321.244)"/></g><g transform="translate(61.15 48.342)"><path class="a" d="M339.308,321.244a11.982,11.982,0,1,0,11.982,11.982A11.995,11.995,0,0,0,339.308,321.244Zm0,17.768a5.785,5.785,0,1,1,5.786-5.784A5.791,5.791,0,0,1,339.308,339.012Z" transform="translate(-327.326 -321.244)"/></g><g transform="translate(0 15.391)"><path class="a" d="M11.775,144.864a3.1,3.1,0,0,0-2.755,1.679L.344,163.381A3.1,3.1,0,0,0,0,164.8v25a3.1,3.1,0,0,0,3.1,3.1h7.54v-6.2H6.2V165.552l7.467-14.49H37.289v-6.2Z" transform="translate(0 -144.864)"/></g><g transform="translate(28.819 57.225)"><rect class="a" width="35.327" height="6.198"/></g><g transform="translate(34.19 0)"><path class="a" d="M241.377,62.479H186.115a3.1,3.1,0,0,0-3.1,3.1V122.8h6.2V68.677h49.065V119.7h-7.437v6.2h10.536a3.1,3.1,0,0,0,3.1-3.1V65.578A3.1,3.1,0,0,0,241.377,62.479Z" transform="translate(-183.016 -62.479)"/></g><g transform="translate(3.099 32.331)"><rect class="a" width="34.19" height="6.198"/></g><g transform="translate(48.962 17.869)"><path class="a" d="M293.22,159.169a3.1,3.1,0,0,0-4.375-.258l-15.362,13.645-6.094-6.173a3.1,3.1,0,1,0-4.41,4.355L271.139,179a3.1,3.1,0,0,0,4.262.14l17.56-15.6A3.1,3.1,0,0,0,293.22,159.169Z" transform="translate(-262.086 -158.128)"/></g></svg>