<svg xmlns="http://www.w3.org/2000/svg" width="63.55" height="72.306" viewBox="0 0 63.55 72.306"><defs><style>.a{fill:#bbb;}</style></defs><g transform="translate(8.473 29.657)"><path class="a" d="M97.355,210A6.362,6.362,0,0,0,91,216.355v17.229a6.355,6.355,0,0,0,12.71,0V216.355A6.362,6.362,0,0,0,97.355,210Z" transform="translate(-91 -210)"/></g><g transform="translate(0 34.228)"><path class="a" d="M35.237,244.15a10.51,10.51,0,0,1,.18-1.784A6.342,6.342,0,0,0,31,248.387v8.756a6.342,6.342,0,0,0,4.417,6.021,10.51,10.51,0,0,1-.18-1.784Z" transform="translate(-31 -242.366)"/></g><g transform="translate(25.42 29.657)"><path class="a" d="M234.3,210a6.362,6.362,0,0,0-6.355,6.355v17.229a6.362,6.362,0,0,0,6.355,6.355,6.268,6.268,0,0,0,1.821-.3,6.342,6.342,0,0,1-6.057,4.534H223.32a6.355,6.355,0,1,0,0,4.237h6.745a10.6,10.6,0,0,0,10.592-10.592V216.355A6.362,6.362,0,0,0,234.3,210Z" transform="translate(-211 -210)"/></g><g transform="translate(59.133 34.228)"><path class="a" d="M449.722,242.366a10.509,10.509,0,0,1,.18,1.784v17.229a10.509,10.509,0,0,1-.18,1.784,6.342,6.342,0,0,0,4.417-6.021v-8.756A6.342,6.342,0,0,0,449.722,242.366Z" transform="translate(-449.722 -242.366)"/></g><g transform="translate(0)"><path class="a" d="M62.775,0A31.81,31.81,0,0,0,31,31.775v.054a10.489,10.489,0,0,1,4.334-1.968,27.506,27.506,0,0,1,54.883,0,10.493,10.493,0,0,1,4.334,1.968v-.054A31.81,31.81,0,0,0,62.775,0Z" transform="translate(-31)"/></g></svg>