<?xml version="1.0" encoding="iso-8859-1"?>
<!-- Generator: Adobe Illustrator 19.0.0, SVG Export Plug-In . SVG Version: 6.00 Build 0)  -->
<svg version="1.1" id="Capa_1" xmlns="http://www.w3.org/2000/svg" xmlns:xlink="http://www.w3.org/1999/xlink" x="0px" y="0px"
	 viewBox="0 0 512 512" style="enable-background:new 0 0 512 512;" xml:space="preserve">
<path style="fill:#F2F2F4;" d="M467,436H45c-24.813,0-45-20.187-45-45V121c0-24.813,20.187-45,45-45h422c24.813,0,45,20.187,45,45
	v270C512,415.813,491.813,436,467,436z"/>
<path style="fill:#DFDFE1;" d="M467,76H256v360h211c24.813,0,45-20.187,45-45V121C512,96.187,491.813,76,467,76z"/>
<g>
	<path style="fill:#FFDC40;" d="M347,226c-24.813,0-45-20.187-45-45s20.187-45,45-45s45,20.187,45,45S371.813,226,347,226z"/>
	<path style="fill:#FFDC40;" d="M170,226H60v-90h110V226z"/>
</g>
<g>
	<rect x="60" y="286" style="fill:#888890;" width="392" height="30"/>
	<rect x="60" y="346" style="fill:#888890;" width="196" height="30"/>
</g>
<path style="fill:#FF6849;" d="M407,226c-24.813,0-45-20.187-45-45s20.187-45,45-45s45,20.187,45,45S431.813,226,407,226z"/>
<rect x="256" y="286" style="fill:#56535A;" width="196" height="30"/>
<g>
</g>
<g>
</g>
<g>
</g>
<g>
</g>
<g>
</g>
<g>
</g>
<g>
</g>
<g>
</g>
<g>
</g>
<g>
</g>
<g>
</g>
<g>
</g>
<g>
</g>
<g>
</g>
<g>
</g>
</svg>
