<svg xmlns="http://www.w3.org/2000/svg" width="57.331" height="72.306" viewBox="0 0 57.331 72.306"><defs><style>.a{fill:#bbb;}</style></defs><g transform="translate(0)"><path class="a" d="M110.316,59.627l-3.229-40.688a5.085,5.085,0,0,0-5.047-4.675H95.662v-.287a13.977,13.977,0,1,0-27.953,0v.287H61.331a5.084,5.084,0,0,0-5.047,4.669l-3.23,40.7A11.773,11.773,0,0,0,64.793,72.306H98.578a11.773,11.773,0,0,0,11.739-12.679ZM71.944,13.977a9.741,9.741,0,1,1,19.483,0v.287H71.944Zm32.164,51.678a7.461,7.461,0,0,1-5.53,2.416H64.793a7.538,7.538,0,0,1-7.516-8.109l3.23-40.7a.83.83,0,0,1,.824-.763h6.378v5.216a2.118,2.118,0,1,0,4.235,0V18.5H91.427v5.216a2.118,2.118,0,1,0,4.235,0V18.5h6.378a.832.832,0,0,1,.825.769l3.229,40.688A7.461,7.461,0,0,1,104.108,65.655Z" transform="translate(-53.02)"/></g><g transform="translate(18.505 35.291)"><path class="a" d="M203.753,250.513a2.117,2.117,0,0,0-2.994,0l-9.456,9.456-3.636-3.636a2.118,2.118,0,0,0-2.995,2.995l5.133,5.133a2.117,2.117,0,0,0,2.994,0l10.953-10.953A2.118,2.118,0,0,0,203.753,250.513Z" transform="translate(-184.052 -249.893)"/></g></svg>